<svg width="6027" height="6136" viewBox="0 0 6027 6136" fill="none" xmlns="http://www.w3.org/2000/svg">
<ellipse cx="3013.08" cy="3199.78" rx="3008.05" ry="2913.38" transform="rotate(-0.0960758 3013.08 3199.78)" fill="#B5E5EF"/>
<path d="M2700 4268.22C2622.24 4245.29 2580.96 4230.41 2513 4198.89C2546.81 4312.32 2557.41 4371.35 2566 4470.97H2317C2361.7 4698.64 2516.18 4855.57 2791 4954.21L2705 4614.89L2700 4268.22Z" fill="#CC884A" stroke="#CC884A"/>
<path d="M3035.83 4408.99C2309.56 4408.99 1680.97 3701.72 1337 2033.21C1733.74 833.78 2163.18 866.973 3035.83 1194.7C3806.08 775.597 4568.63 1055.93 4632 2033.21C4339.26 3744.82 3762.09 4408.99 3035.83 4408.99Z" fill="#D78C47" stroke="black"/>
<path d="M1425.42 2511.04C1298.59 2117.06 1256.23 1902.7 1296.94 1546.73C1307.26 1325.61 1334.73 1253.25 1387.63 1127.47C1440.53 1001.69 1463.91 790.285 1576.56 683.054C1818.67 480.704 1937.72 461.246 2135.8 506.964C2135.8 506.964 2090.46 465.038 2135.8 372.8C2181.15 280.563 2226.49 280.563 2226.49 280.563C2263.2 197.217 2295.69 167.001 2377.64 146.399C2496.29 106.606 2524.18 116.44 2559.01 146.399C2849.41 -65.2587 3028.67 -28.8199 3360.08 146.399C3782.44 129.945 3957.04 238.64 4229.17 506.964C4835.61 1151.3 4617.92 2179.63 4562.38 2447.37C4562.75 2480.52 4560.05 2503.29 4554.13 2511.04C4547.52 2519.69 4552.25 2496.16 4562.38 2447.37C4560.03 2240.06 4437.45 1626.62 4229.17 1739.59C3987.57 1870.64 3884.3 1746.43 3669.93 1651.55L3700.16 1676.7C3358.55 1679.48 3175.36 1657.91 2891.53 1500.61C2915.76 1554.98 2959.97 1590.31 3027.56 1651.55C2583.37 1564.62 2331.66 1521.22 1988.44 1232.29C1960.56 1283.04 1965.13 1311.5 1988.44 1362.26C1942.33 1355.51 1918.45 1363.3 1856.18 1261.64C1553.05 1634.92 1460.32 1909.83 1425.42 2511.04Z" fill="#060606" stroke="black"/>
<path d="M4174.44 2008.12C3906.47 1937.68 3750.83 1932.61 3455.72 2035.26L3370 2197.81C3737.43 2059.81 3952.43 2057.24 4352.91 2194.21C4277.08 2099.46 4233.7 2043.23 4174.44 2008.12Z" fill="black" stroke="black"/>
<path d="M1988.65 2009.17C2256.61 1938.73 2412.25 1933.66 2707.37 2036.31L2793.09 2198.86C2425.66 2060.87 2210.66 2058.29 1810.18 2195.26C1886.01 2100.51 1929.38 2044.29 1988.65 2009.17Z" fill="black" stroke="black"/>
<g filter="url(#filter0_d)">
<ellipse cx="3001.5" cy="2715.55" rx="298.5" ry="231.115" fill="#D78C47"/>
</g>
<path d="M3431 3428.85C3431 3477 3420.61 3524.68 3400.44 3569.16C3380.26 3613.64 3350.69 3654.06 3313.4 3688.1C3276.12 3722.15 3231.86 3749.15 3183.15 3767.58C3134.44 3786 3082.23 3795.49 3029.5 3795.49C2976.77 3795.49 2924.56 3786 2875.85 3767.58C2827.14 3749.15 2782.88 3722.15 2745.6 3688.1C2708.31 3654.06 2678.74 3613.64 2658.56 3569.16C2638.39 3524.68 2628 3477 2628 3428.85L3029.5 3428.85H3431Z" fill="white"/>
<ellipse cx="2285" cy="2460.8" rx="70" ry="123.436" fill="black"/>
<ellipse cx="3783" cy="2479.71" rx="70" ry="123.436" fill="black"/>
<path d="M1329 2508.6C1320.33 2452.04 1336.87 2424.59 1401 2382.53L1427 2365.73L1611 2960.32L1601 2962.42C1601 2962.42 1527.93 2970.82 1449 2903.59C1370.07 2836.37 1330.46 2554.26 1329 2508.6Z" fill="#D78C47" stroke="#D78C47"/>
<path d="M1377.4 2572.92C1371.72 2537.89 1382.55 2520.89 1424.53 2494.85L1441.55 2484.43L1562 2852.71L1555.45 2854.01C1555.45 2854.01 1507.62 2859.21 1455.95 2817.57C1404.29 2775.94 1378.35 2601.21 1377.4 2572.92Z" fill="#D27825" stroke="#D78C47"/>
<path d="M4676.24 2511.16C4683.91 2454.44 4666.89 2427.32 4602.03 2386.52L4575.74 2370.22L4402.24 2968.28L4412.27 2970.19C4412.27 2970.19 4485.48 2977.16 4563.21 2908.42C4640.94 2839.67 4675.58 2556.84 4676.24 2511.16Z" fill="#D78C47" stroke="#D78C47"/>
<path d="M4630.6 2567.67C4636.28 2532.64 4625.45 2515.64 4583.47 2489.59L4566.45 2479.18L4446 2847.46L4452.55 2848.76C4452.55 2848.76 4500.38 2853.96 4552.05 2812.32C4603.71 2770.68 4629.65 2595.95 4630.6 2567.67Z" fill="#D27825" stroke="#D78C47"/>
<path d="M2509 4802.94C2562.02 4590.54 2602.8 4477.62 2509 4183.27C2958.56 4376.15 3204.67 4357.24 3635 4139.01C3537.67 4434.51 3541.84 4578.32 3635 4802.94H2509Z" fill="#D78C47" stroke="#D78C47"/>
<path d="M996.091 4739.91C680.249 5231.39 612.778 5539.14 652.111 6135H5658.93C5677.93 5539.09 5618.58 5223.04 5200.29 4739.91C4630.7 4573.5 4217.78 4489.28 3702.07 4470.97H2387.3C2026.33 4493.02 1814.31 4509.77 996.091 4739.91Z" fill="#6388BE" stroke="#D78C47"/>
<path d="M3859 4470.97C3859 4619.2 3777.66 4761.35 3632.89 4866.16C3488.11 4970.97 3291.75 5029.85 3087 5029.85C2882.25 5029.85 2685.89 4970.97 2541.11 4866.16C2396.34 4761.35 2315 4619.2 2315 4470.97L3087 4470.97H3859Z" fill="#D78C47"/>
<path d="M4158.63 4495.58C4139.49 4704.38 4019.44 4898.52 3822.06 5039.85C3624.68 5181.18 3364.24 5259.49 3091.91 5259.4C2819.57 5259.3 2555.03 5180.8 2350.24 5039.33C2145.46 4897.85 2023.1 4714.75 1993.02 4505.92L2319.01 4471.55C2339.83 4616.11 2429.97 4750.56 2571.73 4848.49C2713.49 4946.42 2896.62 5000.76 3085.14 5000.83C3273.65 5000.9 3453.94 4946.69 3590.57 4848.85C3727.2 4751.02 3810.3 4616.63 3823.55 4472.09L3989.69 4483.7L4158.63 4495.58Z" fill="#4677B3"/>
<path d="M2989 4360.77C2523.23 4479.96 1984.8 4125.69 1581 2924.6C2572.32 4400.03 2725.82 3835.11 2993.97 3837.7C3262.13 3840.28 3536.52 4406.3 4433 2924.6C4041 4176.83 3457.1 4513.93 2989 4360.77Z" fill="black" stroke="black"/>
<path d="M3765 3979.33C3765 3718.34 3614.69 3299.37 3475.91 3114.83C3337.14 2930.28 3221.26 3114.83 3025 3114.83C2828.74 3114.83 2712.86 2930.28 2574.09 3114.83C2435.31 3299.37 2285 3718.34 2285 3979.33H2497.18C2497.18 3820.3 2532.59 3559.91 2617.15 3447.46C2701.71 3335.01 2905.41 3447.46 3025 3447.46C3144.59 3447.46 3358.06 3335.01 3442.63 3447.46C3527.19 3559.91 3568.21 3820.3 3568.21 3979.33H3765Z" fill="black"/>
<path d="M2830.27 5238.9C2368.79 5119.94 2110.88 4879.51 2033.22 4511.94C1700.14 4560.43 1468.83 4613.49 1003.36 4738.86C694.742 5215.15 613.464 5518.58 650.206 6131.85H2850C2769.61 5711.51 2752.09 5503 2830.27 5238.9Z" fill="#4F7FBB" stroke="#4F7FBB"/>
<path d="M1898.76 1142.92C1696.46 1402.58 1646.69 1563.61 1666.74 1877.15L1625.66 1876.82C1476.85 1569.82 1511.22 1413.54 1898.76 1142.92Z" fill="black" stroke="black"/>
<path d="M1898.76 1142.92C1696.46 1402.58 1646.69 1563.61 1666.74 1877.15L1625.66 1876.82C1476.85 1569.82 1511.22 1413.54 1898.76 1142.92Z" fill="black" stroke="black"/>
<path d="M1683.46 1295.24C1539.21 1594.62 1523.66 1763.14 1607.59 2064.76L1567.41 2073.74C1359.09 1807.67 1360.58 1647.28 1683.46 1295.24Z" fill="black" stroke="black"/>
<path d="M3866.59 4003.86C4263.75 3333.62 4510.65 2515.26 4641.08 1697.59C4724.42 2236.99 4603.31 2874.82 3866.59 4003.86Z" fill="black" stroke="black"/>
<path d="M2101.7 3874.65C1704.54 3204.41 1457.64 2386.05 1327.2 1568.38C1243.86 2107.77 1364.97 2745.61 2101.7 3874.65Z" fill="black" stroke="black"/>
<path d="M2461 2362.93C2325.9 2242.12 2249 2233.55 2109 2362.93V2460.27C2241.68 2333.31 2318.53 2327.38 2461 2460.27V2362.93Z" fill="black" stroke="black"/>
<path d="M3959 2362.93C3823.9 2242.12 3747 2233.55 3607 2362.93V2460.27C3739.68 2333.31 3816.53 2327.38 3959 2460.27V2362.93Z" fill="black" stroke="black"/>
<defs>
<filter id="filter0_d" x="2703" y="2484.43" width="606" height="537.23" filterUnits="userSpaceOnUse" color-interpolation-filters="sRGB">
<feFlood flood-opacity="0" result="BackgroundImageFix"/>
<feColorMatrix in="SourceAlpha" type="matrix" values="0 0 0 0 0 0 0 0 0 0 0 0 0 0 0 0 0 0 127 0"/>
<feOffset dx="5" dy="71"/>
<feGaussianBlur stdDeviation="2"/>
<feColorMatrix type="matrix" values="0 0 0 0 0.825 0 0 0 0 0.471075 0 0 0 0 0.144375 0 0 0 1 0"/>
<feBlend mode="normal" in2="BackgroundImageFix" result="effect1_dropShadow"/>
<feBlend mode="normal" in="SourceGraphic" in2="effect1_dropShadow" result="shape"/>
</filter>
</defs>
</svg>
